<?xml version="1.0" encoding="utf-8"?>
<svg version="1.1" id="JAVA" xmlns="http://www.w3.org/2000/svg" xmlns:xlink="http://www.w3.org/1999/xlink" x="0px" y="0px"
	 viewBox="0 0 256 256" style="enable-background:new 0 0 256 256;" xml:space="preserve">
<style type="text/css">
	.st0{fill:#007396;}
	.st1{opacity:0.1;}
	.st2{fill:#FFFFFF;}
</style>
<g id="_x31_9">
	<circle class="st0" cx="128" cy="128" r="128"/>
</g>
<g id="_x31_8" class="st1">
	<path d="M128,254C57.6419067,254,0.5512085,197.2311401,0.0126343,127C0.0100708,127.3337402,0,127.6656494,0,128
		c0,70.6924438,57.3075562,128,128,128s128-57.3075562,128-128c0-0.3343506-0.0100708-0.6662598-0.0126343-1
		C255.4487915,197.2311401,198.3580933,254,128,254z"/>
</g>
<path id="_x31_7" class="st1" d="M110.5497131,166.348175c0,0-5.0813751,2.9550018,3.6162415,3.9549408
	c10.536911,1.2020569,15.9222107,1.0296631,27.5339661-1.1680298c0,0,3.0528259,1.9142151,7.3163452,3.5721588
	C122.9857864,183.8634796,90.1041565,172.0610504,110.5497131,166.348175"/>
<path id="_x31_6" class="st1" d="M107.368927,151.7900391c0,0-5.6992493,4.2187042,3.0048141,5.1190033
	c11.255867,1.1612091,20.1448593,1.2561798,35.5262527-1.7056274c0,0,2.1274567,2.1568451,5.4727478,3.3363342
	C119.9003296,167.7427063,84.8457336,159.2655182,107.368927,151.7900391"/>
<path id="_x31_5" class="st1" d="M134.1839447,127.0945892c6.4138947,7.3844452-1.6851959,14.0295105-1.6851959,14.0295105
	s16.2859955-8.4073181,8.8065796-18.9352722c-6.9855499-9.8179703-12.3425293-14.6961288,16.6580048-31.5154114
	C157.9633179,90.6734161,112.4420547,102.0425339,134.1839447,127.0945892"/>
<path id="_x31_4" class="st1" d="M168.6113434,177.1162567c0,0,3.7603149,3.0983582-4.1412964,5.4953308
	c-15.0251465,4.5516663-62.5362396,5.9261169-75.7346115,0.1813507c-4.7444839-2.0640106,4.1527634-4.9283447,6.9514923-5.5293732
	c2.9188004-0.6329346,4.5867844-0.5150299,4.5867844-0.5150299c-5.2763443-3.7169495-34.1041183,7.2984314-14.6430817,10.4530487
	C138.7037048,195.8085327,182.3777771,183.325882,168.6113434,177.1162567"/>
<path id="_x31_3" class="st1" d="M112.9932709,136.7061157c0,0-24.16716,5.7401123-8.5581894,7.8245544
	c6.5905838,0.8823853,19.7287598,0.6827545,31.9666367-0.3426208c10.0014648-0.8436737,20.0441437-2.6374512,20.0441437-2.6374512
	s-3.5266418,1.5102844-6.0780792,3.2524567c-24.5413361,6.4544067-71.9506378,3.4517365-58.3021088-3.1503143
	C103.6082535,136.0731812,112.9932709,136.7061157,112.9932709,136.7061157"/>
<path id="_x31_2" class="st1" d="M156.3462372,160.9388733c24.9473877-12.9636383,13.4127045-25.4215698,5.3616333-23.7431946
	c-1.9733429,0.4107361-2.8532104,0.7666168-2.8532104,0.7666168s0.7325745-1.147583,2.1317596-1.6443329
	c15.9275818-5.5996094,28.1769257,16.5153656-5.1415863,25.2742615
	C155.8448334,161.5925903,156.2308197,161.2474518,156.3462372,160.9388733"/>
<path id="_x31_1" class="st1" d="M141.3053131,63.514698c0,0,13.8162689,13.820919-13.104126,35.0735893
	c-21.58741,17.0483017-4.9225998,26.7687836-0.0089569,37.8748322
	c-12.6009216-11.3691101-21.84832-21.3773956-15.6444473-30.6921692
	C121.6536102,92.0976944,146.8798523,85.468399,141.3053131,63.514698"/>
<path id="_x31_0" class="st1" d="M115.4447174,196.0672913c23.9463959,1.5328827,60.7187958-0.8504639,61.5897064-12.1812439
	c0,0-1.6740723,4.2953949-19.7904053,7.7066345c-20.4387512,3.846344-45.6470642,3.3972626-60.5983658,0.9322052
	C96.6460037,192.5245209,99.7063675,195.0580444,115.4447174,196.0672913"/>
<path id="_x39_" class="st2" d="M110.5497131,164.348175c0,0-5.0813751,2.9550018,3.6162415,3.9549408
	c10.536911,1.2020569,15.9222107,1.0296631,27.5339661-1.1680298c0,0,3.0528259,1.9142151,7.3163452,3.5721588
	C122.9857864,181.8634796,90.1041565,170.0610504,110.5497131,164.348175"/>
<path id="_x38_" class="st2" d="M107.368927,149.7900391c0,0-5.6992493,4.2187042,3.0048141,5.1190033
	c11.255867,1.1612091,20.1448593,1.2561798,35.5262527-1.7056274c0,0,2.1274567,2.1568451,5.4727478,3.3363342
	C119.9003296,165.7427063,84.8457336,157.2655182,107.368927,149.7900391"/>
<path id="_x37_" class="st2" d="M134.1839447,125.0945892c6.4138947,7.3844452-1.6851959,14.0295105-1.6851959,14.0295105
	s16.2859955-8.4073181,8.8065796-18.9352722c-6.9855499-9.8179703-12.3425293-14.6961288,16.6580048-31.5154114
	C157.9633179,88.6734161,112.4420547,100.0425339,134.1839447,125.0945892"/>
<path id="_x36_" class="st2" d="M168.6113434,175.1162567c0,0,3.7603149,3.0983582-4.1412964,5.4953308
	c-15.0251465,4.5516663-62.5362396,5.9261169-75.7346115,0.1813507c-4.7444839-2.0640106,4.1527634-4.9283447,6.9514923-5.5293732
	c2.9188004-0.6329346,4.5867844-0.5150299,4.5867844-0.5150299c-5.2763443-3.7169495-34.1041183,7.2984314-14.6430817,10.4530487
	C138.7037048,193.8085327,182.3777771,181.325882,168.6113434,175.1162567"/>
<path id="_x35_" class="st2" d="M112.9932709,134.7061157c0,0-24.16716,5.7401123-8.5581894,7.8245544
	c6.5905838,0.8823853,19.7287598,0.6827545,31.9666367-0.3426208c10.0014648-0.8436737,20.0441437-2.6374512,20.0441437-2.6374512
	s-3.5266418,1.5102844-6.0780792,3.2524567c-24.5413361,6.4544067-71.9506378,3.4517365-58.3021088-3.1503143
	C103.6082535,134.0731812,112.9932709,134.7061157,112.9932709,134.7061157"/>
<path id="_x34_" class="st2" d="M156.3462372,158.9388733c24.9473877-12.9636383,13.4127045-25.4215698,5.3616333-23.7431946
	c-1.9733429,0.4107361-2.8532104,0.7666168-2.8532104,0.7666168s0.7325745-1.147583,2.1317596-1.6443329
	c15.9275818-5.5996094,28.1769257,16.5153656-5.1415863,25.2742615
	C155.8448334,159.5925903,156.2308197,159.2474518,156.3462372,158.9388733"/>
<path id="_x33_" class="st2" d="M141.3053131,61.514698c0,0,13.8162689,13.820919-13.104126,35.0735893
	c-21.58741,17.0483017-4.9225998,26.7687836-0.0089569,37.8748322
	c-12.6009216-11.3691101-21.84832-21.3773956-15.6444473-30.6921692
	C121.6536102,90.0976944,146.8798523,83.468399,141.3053131,61.514698"/>
<path id="_x32_" class="st2" d="M115.4447174,194.0672913c23.9463959,1.5328827,60.7187958-0.8504639,61.5897064-12.1812439
	c0,0-1.6740723,4.2953949-19.7904053,7.7066345c-20.4387512,3.846344-45.6470642,3.3972626-60.5983658,0.9322052
	C96.6460037,190.5245209,99.7063675,193.0580444,115.4447174,194.0672913"/>
<g id="_x31_" class="st1">
	<path class="st2" d="M128,2c70.3580933,0,127.4487915,56.7688599,127.9873657,127C255.9899292,128.6662598,256,128.3343506,256,128
		C256,57.3075562,198.6924438,0,128,0S0,57.3075562,0,128c0,0.3343506,0.0100708,0.6662598,0.0126343,1
		C0.5512085,58.7688599,57.6419067,2,128,2z"/>
</g>
</svg>
